<svg xmlns="http://www.w3.org/2000/svg" xmlns:xlink="http://www.w3.org/1999/xlink" width="1000" zoomAndPan="magnify" viewBox="0 0 750 149.999998" height="200" preserveAspectRatio="xMidYMid meet" version="1.0"><defs><g/><clipPath id="09e403e983"><path d="M 135 9 L 169 9 L 169 42 L 135 42 Z M 135 9 " clip-rule="nonzero"/></clipPath><clipPath id="a0228e8b23"><path d="M 136.269531 9.230469 L 168.511719 9.898438 L 167.859375 41.390625 L 135.617188 40.722656 Z M 136.269531 9.230469 " clip-rule="nonzero"/></clipPath><clipPath id="e07c9765f1"><path d="M 133.8125 9.179688 L 168.308594 9.894531 L 167.589844 44.386719 L 133.097656 43.671875 Z M 133.8125 9.179688 " clip-rule="nonzero"/></clipPath></defs><g fill="#055b49" fill-opacity="1"><g transform="translate(57.041376, 112.607258)"><g><path d="M 75.015625 -7.648438 C 70.011719 -9.265625 68.6875 -11.03125 68.6875 -16.328125 L 68.6875 -96.046875 C 68.6875 -99.136719 67.21875 -100.605469 64.128906 -100.605469 C 63.394531 -100.605469 62.804688 -100.460938 62.21875 -100.3125 L 46.183594 -95.605469 C 44.714844 -95.019531 43.242188 -93.695312 43.242188 -91.632812 C 43.242188 -89.871094 43.683594 -88.839844 45.007812 -87.957031 C 49.863281 -86.78125 51.1875 -85.015625 51.1875 -80.308594 L 51.1875 -56.921875 C 47.214844 -63.984375 40.597656 -67.511719 30.886719 -67.511719 C 13.53125 -67.511719 5.589844 -56.480469 5.589844 -33.09375 C 5.589844 -9.707031 14.265625 1.324219 30.886719 1.324219 C 40.449219 1.324219 47.066406 -2.207031 51.1875 -9.5625 L 51.1875 -8.824219 C 51.1875 -3.972656 55.011719 0 60.011719 0 L 72.21875 0 C 75.160156 0 76.484375 -1.765625 76.484375 -4.414062 C 76.484375 -5.738281 76.042969 -6.914062 75.015625 -7.648438 Z M 37.066406 -7.5 C 27.652344 -7.5 23.09375 -15.738281 23.09375 -33.09375 C 23.09375 -50.449219 26.917969 -58.6875 37.066406 -58.6875 C 47.066406 -58.6875 51.1875 -50.007812 51.1875 -33.828125 L 51.1875 -32.507812 C 51.1875 -16.179688 46.039062 -7.5 37.066406 -7.5 Z M 37.066406 -7.5 "/></g></g></g><g fill="#055b49" fill-opacity="1"><g transform="translate(131.319758, 112.607258)"><g><path d="M 21.035156 -79.425781 C 27.800781 -79.425781 31.625 -83.25 31.625 -90.015625 C 31.625 -96.488281 27.800781 -100.605469 21.035156 -100.605469 C 14.265625 -100.605469 10.441406 -96.78125 10.441406 -90.015625 C 10.441406 -83.25 14.265625 -79.425781 21.035156 -79.425781 Z M 33.386719 0 C 36.332031 0 37.800781 -1.765625 37.800781 -4.414062 C 37.800781 -5.738281 37.210938 -6.914062 36.035156 -7.648438 C 31.183594 -9.265625 29.859375 -11.03125 29.859375 -16.03125 L 29.859375 -62.953125 C 29.859375 -66.042969 28.386719 -67.511719 25.152344 -67.511719 C 24.5625 -67.511719 23.976562 -67.367188 23.386719 -67.21875 L 7.355469 -62.511719 C 5.738281 -61.921875 4.414062 -60.746094 4.414062 -58.539062 C 4.414062 -56.773438 4.855469 -55.746094 6.175781 -54.863281 C 11.03125 -53.6875 12.355469 -51.921875 12.355469 -47.214844 L 12.355469 -16.03125 C 12.355469 -11.03125 10.882812 -9.265625 6.03125 -7.648438 C 5 -6.914062 4.414062 -5.738281 4.414062 -4.414062 C 4.414062 -1.765625 5.738281 0 8.679688 0 Z M 33.386719 0 "/></g></g></g><g fill="#055b49" fill-opacity="1"><g transform="translate(166.767375, 112.607258)"><g><path d="M 78.398438 -7.648438 C 73.394531 -9.265625 71.925781 -11.03125 71.925781 -16.328125 L 72.070312 -45.449219 C 72.070312 -60.160156 64.71875 -67.511719 50.15625 -67.511719 C 41.035156 -67.511719 33.976562 -63.984375 29.859375 -57.65625 L 29.859375 -62.953125 C 29.859375 -66.042969 28.386719 -67.511719 25.152344 -67.511719 C 24.5625 -67.511719 23.976562 -67.367188 23.238281 -67.21875 L 7.355469 -62.511719 C 5.738281 -61.921875 4.414062 -60.746094 4.414062 -58.539062 C 4.414062 -56.921875 4.707031 -55.746094 6.175781 -54.863281 C 10.882812 -53.6875 12.207031 -51.921875 12.207031 -47.214844 L 12.207031 -16.03125 C 12.207031 -11.03125 10.882812 -9.265625 6.03125 -7.648438 C 4.855469 -6.914062 4.414062 -5.738281 4.414062 -4.414062 C 4.414062 -1.765625 5.738281 0 8.824219 0 L 33.242188 0 C 36.332031 0 37.652344 -1.765625 37.652344 -4.414062 C 37.652344 -5.738281 37.066406 -6.914062 36.183594 -7.648438 C 31.183594 -9.265625 29.859375 -11.03125 29.710938 -16.03125 L 29.859375 -39.714844 C 29.859375 -51.773438 35.449219 -58.6875 43.980469 -58.6875 C 51.628906 -58.6875 54.421875 -54.570312 54.421875 -47.949219 L 54.421875 -4.707031 C 54.421875 -2.058594 56.480469 0 59.128906 0 L 75.457031 0 C 78.542969 0 79.867188 -1.765625 79.867188 -4.414062 C 79.867188 -5.738281 79.28125 -6.914062 78.398438 -7.648438 Z M 78.398438 -7.648438 "/></g></g></g><g fill="#055b49" fill-opacity="1"><g transform="translate(244.428737, 112.607258)"><g><path d="M 66.484375 -33.242188 C 66.484375 -55.453125 58.246094 -67.660156 36.183594 -67.660156 C 15.445312 -67.660156 5.589844 -55.453125 5.589844 -33.242188 C 5.589844 -11.03125 17.503906 1.175781 40.007812 1.175781 C 51.921875 1.175781 58.980469 -2.5 63.542969 -9.265625 C 65.160156 -11.765625 64.570312 -14.121094 62.070312 -15.589844 C 60.011719 -16.769531 57.804688 -16.621094 55.746094 -14.121094 C 52.507812 -10.296875 48.390625 -7.5 41.625 -7.5 C 30.742188 -7.5 24.417969 -13.972656 23.238281 -28.828125 L 62.660156 -28.828125 C 65.304688 -28.828125 66.484375 -30.445312 66.484375 -33.242188 Z M 37.066406 -58.835938 C 45.890625 -58.835938 50.304688 -52.507812 51.039062 -37.507812 L 23.09375 -37.507812 C 23.679688 -52.214844 27.800781 -58.835938 37.066406 -58.835938 Z M 37.066406 -58.835938 "/></g></g></g><g fill="#055b49" fill-opacity="1"><g transform="translate(311.20572, 112.607258)"><g/></g></g><g fill="#055b49" fill-opacity="1"><g transform="translate(347.241673, 112.607258)"><g><path d="M 50.890625 -66.925781 C 41.917969 -66.925781 34.417969 -61.777344 29.859375 -52.507812 L 29.859375 -62.953125 C 29.859375 -66.042969 28.242188 -67.511719 25.152344 -67.511719 C 24.5625 -67.511719 23.828125 -67.367188 23.238281 -67.21875 L 7.355469 -62.511719 C 5.738281 -61.921875 4.265625 -60.597656 4.265625 -58.539062 C 4.265625 -56.773438 4.707031 -55.746094 6.175781 -54.863281 C 10.882812 -53.6875 12.207031 -51.921875 12.207031 -47.214844 L 12.207031 -16.03125 C 12.207031 -11.03125 10.738281 -9.265625 5.882812 -7.648438 C 4.855469 -6.914062 4.414062 -5.738281 4.265625 -4.414062 C 4.265625 -1.765625 5.589844 0 8.679688 0 L 33.242188 0 C 36.332031 0 37.652344 -1.765625 37.652344 -4.414062 C 37.652344 -5.738281 37.066406 -6.914062 36.035156 -7.648438 C 31.183594 -9.265625 29.859375 -11.03125 29.710938 -16.03125 L 29.710938 -28.535156 L 29.859375 -28.535156 C 29.859375 -44.125 38.832031 -51.480469 50.007812 -51.480469 C 55.304688 -51.480469 58.835938 -53.6875 58.835938 -59.128906 C 58.835938 -64.570312 55.597656 -66.925781 50.890625 -66.925781 Z M 50.890625 -66.925781 "/></g></g></g><g fill="#055b49" fill-opacity="1"><g transform="translate(402.251748, 112.607258)"><g><path d="M 66.484375 -33.242188 C 66.484375 -55.453125 58.246094 -67.660156 36.183594 -67.660156 C 15.445312 -67.660156 5.589844 -55.453125 5.589844 -33.242188 C 5.589844 -11.03125 17.503906 1.175781 40.007812 1.175781 C 51.921875 1.175781 58.980469 -2.5 63.542969 -9.265625 C 65.160156 -11.765625 64.570312 -14.121094 62.070312 -15.589844 C 60.011719 -16.769531 57.804688 -16.621094 55.746094 -14.121094 C 52.507812 -10.296875 48.390625 -7.5 41.625 -7.5 C 30.742188 -7.5 24.417969 -13.972656 23.238281 -28.828125 L 62.660156 -28.828125 C 65.304688 -28.828125 66.484375 -30.445312 66.484375 -33.242188 Z M 37.066406 -58.835938 C 45.890625 -58.835938 50.304688 -52.507812 51.039062 -37.507812 L 23.09375 -37.507812 C 23.679688 -52.214844 27.800781 -58.835938 37.066406 -58.835938 Z M 37.066406 -58.835938 "/></g></g></g><g fill="#055b49" fill-opacity="1"><g transform="translate(469.028732, 112.607258)"><g><path d="M 71.632812 -7.648438 C 66.777344 -9.265625 65.304688 -11.03125 65.304688 -16.328125 L 65.304688 -45.890625 C 65.304688 -59.570312 55.15625 -67.660156 36.183594 -67.660156 C 19.414062 -67.660156 9.5625 -59.570312 9.5625 -48.390625 C 9.5625 -44.273438 12.796875 -42.066406 17.503906 -42.066406 C 22.503906 -42.066406 25.152344 -44.273438 25.152344 -48.390625 C 25.152344 -53.6875 28.535156 -58.6875 36.183594 -58.6875 C 43.980469 -58.6875 47.804688 -54.128906 47.804688 -48.832031 C 47.804688 -42.949219 44.859375 -39.273438 38.976562 -38.242188 L 24.710938 -35.890625 C 10.882812 -33.535156 5.589844 -26.179688 5.589844 -15.738281 C 5.589844 -5.148438 12.648438 1.175781 25.152344 1.175781 C 36.035156 1.175781 43.539062 -2.207031 47.804688 -8.53125 C 48.097656 -3.824219 52.214844 0 57.070312 0 L 68.835938 0 C 71.925781 0 73.25 -1.765625 73.25 -4.414062 C 73.25 -5.738281 72.660156 -6.914062 71.632812 -7.648438 Z M 33.386719 -7.5 C 26.179688 -7.5 23.09375 -11.765625 23.09375 -16.914062 C 23.09375 -22.796875 26.035156 -27.210938 32.949219 -28.386719 L 42.65625 -30.003906 C 44.566406 -30.300781 46.332031 -30.886719 47.804688 -31.625 L 47.804688 -26.476562 C 47.804688 -14.121094 42.65625 -7.5 33.386719 -7.5 Z M 33.386719 -7.5 "/></g></g></g><g fill="#055b49" fill-opacity="1"><g transform="translate(540.071218, 112.607258)"><g><path d="M 75.015625 -7.648438 C 70.011719 -9.265625 68.6875 -11.03125 68.6875 -16.328125 L 68.6875 -96.046875 C 68.6875 -99.136719 67.21875 -100.605469 64.128906 -100.605469 C 63.394531 -100.605469 62.804688 -100.460938 62.21875 -100.3125 L 46.183594 -95.605469 C 44.714844 -95.019531 43.242188 -93.695312 43.242188 -91.632812 C 43.242188 -89.871094 43.683594 -88.839844 45.007812 -87.957031 C 49.863281 -86.78125 51.1875 -85.015625 51.1875 -80.308594 L 51.1875 -56.921875 C 47.214844 -63.984375 40.597656 -67.511719 30.886719 -67.511719 C 13.53125 -67.511719 5.589844 -56.480469 5.589844 -33.09375 C 5.589844 -9.707031 14.265625 1.324219 30.886719 1.324219 C 40.449219 1.324219 47.066406 -2.207031 51.1875 -9.5625 L 51.1875 -8.824219 C 51.1875 -3.972656 55.011719 0 60.011719 0 L 72.21875 0 C 75.160156 0 76.484375 -1.765625 76.484375 -4.414062 C 76.484375 -5.738281 76.042969 -6.914062 75.015625 -7.648438 Z M 37.066406 -7.5 C 27.652344 -7.5 23.09375 -15.738281 23.09375 -33.09375 C 23.09375 -50.449219 26.917969 -58.6875 37.066406 -58.6875 C 47.066406 -58.6875 51.1875 -50.007812 51.1875 -33.828125 L 51.1875 -32.507812 C 51.1875 -16.179688 46.039062 -7.5 37.066406 -7.5 Z M 37.066406 -7.5 "/></g></g></g><g fill="#055b49" fill-opacity="1"><g transform="translate(614.349581, 112.607258)"><g><path d="M 54.273438 -66.1875 C 51.1875 -66.1875 49.863281 -65.011719 49.863281 -62.363281 C 49.863281 -60.597656 50.597656 -59.570312 51.773438 -58.835938 C 56.480469 -57.511719 57.65625 -55.304688 55.011719 -49.273438 L 43.980469 -22.945312 L 33.386719 -49.273438 C 31.035156 -55.453125 31.769531 -57.511719 36.625 -58.835938 C 37.800781 -59.570312 38.390625 -60.597656 38.390625 -62.363281 C 38.390625 -65.011719 36.917969 -66.1875 33.828125 -66.1875 L 6.03125 -66.1875 C 2.941406 -66.1875 1.617188 -64.421875 1.617188 -61.921875 C 1.617188 -60.597656 2.351562 -58.835938 3.972656 -57.953125 C 10 -55.894531 12.0625 -54.714844 15.003906 -47.65625 L 34.566406 -0.292969 L 25.886719 20.59375 C 24.5625 23.976562 22.503906 25.738281 18.972656 25.738281 C 15.003906 25.738281 12.355469 22.796875 12.355469 16.328125 C 12.355469 12.503906 10.589844 9.414062 5.441406 9.414062 C 0.292969 9.414062 -2.058594 12.945312 -2.058594 17.945312 C -2.058594 28.386719 4.414062 34.417969 16.769531 34.417969 C 25.296875 34.417969 30.886719 31.183594 34.417969 22.945312 L 63.835938 -47.65625 C 66.777344 -54.714844 68.835938 -55.894531 74.867188 -57.953125 C 76.484375 -58.835938 77.074219 -60.597656 77.074219 -61.921875 C 77.074219 -64.421875 75.894531 -66.1875 72.808594 -66.1875 Z M 54.273438 -66.1875 "/></g></g></g><g clip-path="url(#09e403e983)"><g clip-path="url(#a0228e8b23)"><g clip-path="url(#e07c9765f1)"><path fill="#86b649" d="M 167.628906 10.152344 C 167.398438 10.132812 167.160156 10.132812 166.929688 10.113281 C 165.195312 9.960938 163.460938 9.792969 161.714844 9.84375 C 160.699219 9.871094 159.683594 9.871094 158.671875 9.917969 C 158.078125 9.945312 157.476562 10 156.890625 10.121094 C 155.289062 10.453125 153.703125 10.847656 152.15625 11.414062 C 150.433594 12.046875 148.785156 12.816406 147.25 13.804688 C 145.410156 14.996094 143.707031 16.359375 142.320312 18.089844 C 141.210938 19.472656 140.113281 20.859375 139.292969 22.4375 C 138.96875 23.058594 138.714844 23.71875 138.4375 24.363281 C 137.902344 25.609375 137.429688 26.875 137.085938 28.191406 C 136.761719 29.453125 136.433594 30.710938 136.25 32.003906 C 136.066406 33.316406 135.824219 34.625 135.699219 35.941406 C 135.625 36.765625 135.589844 37.601562 135.746094 38.433594 C 135.933594 39.417969 135.914062 39.421875 135.269531 40.183594 C 135.238281 40.226562 135.203125 40.265625 135.167969 40.300781 C 134.308594 41.230469 133.78125 42.371094 133.15625 43.453125 C 133.113281 43.523438 133.160156 43.652344 133.175781 43.941406 C 134.144531 42.390625 134.949219 40.957031 136.226562 39.722656 C 136.515625 40.191406 136.945312 40.285156 137.375 40.410156 C 138.105469 40.621094 138.835938 40.773438 139.601562 40.703125 C 139.859375 40.679688 140.121094 40.742188 140.382812 40.75 C 141.808594 40.800781 143.230469 40.949219 144.671875 40.871094 C 145.773438 40.808594 146.828125 40.519531 147.90625 40.375 C 149.261719 40.191406 150.53125 39.714844 151.789062 39.222656 C 152.414062 38.980469 153.011719 38.644531 153.589844 38.296875 C 154.234375 37.910156 154.847656 37.460938 155.46875 37.039062 C 157.070312 35.949219 158.539062 34.714844 159.808594 33.25 C 160.527344 32.421875 161.222656 31.582031 161.765625 30.625 C 162.203125 29.855469 162.628906 29.078125 163.050781 28.300781 C 164.148438 26.28125 165.027344 24.171875 165.691406 21.972656 C 166.253906 20.101562 166.765625 18.21875 167.292969 16.339844 C 167.589844 15.285156 167.886719 14.234375 168.152344 13.171875 C 168.3125 12.542969 168.4375 11.902344 168.527344 11.257812 C 168.621094 10.582031 168.296875 10.214844 167.628906 10.152344 Z M 167.628906 10.152344 " fill-opacity="1" fill-rule="nonzero"/></g></g></g></svg>